<svg xmlns="http://www.w3.org/2000/svg" xml:space="preserve" width="80" height="80" id="coin">
  <path d="M40 0A40 40 0 0 0 0 40a40 40 0 0 0 40 40 40 40 0 0 0 40-40A40 40 0 0 0 40 0zM27 22h12c.6 0 1 .4 1 1v2c0 .5-.4 1-1 1H27c-.5 0-1-.5-1-1v-2c0-.6.4-1 1-1zm0 6h12c.5 0 1 .5 1 1v2c0 .6-.4 1-1 1H27c-.6 0-1-.4-1-1v-2c0-.5.4-1 1-1zm0 6h12c.6 0 1 .4 1 1v2c0 .6-.4 1-1 1H27c-.6 0-1-.4-1-1v-2c0-.6.4-1 1-1zm15 2h19c.6 0 1 .4 1 1v18c0 .6-.4 1-1 1H41.8c.1-.3.2-.6.2-1v-1h14c.3 0 .5-.1.7-.3.2-.2.3-.4.3-.7 0-1.1.9-2 2-2 .6 0 1-.4 1-1v-8c0-.3-.1-.5-.3-.7-.2-.2-.4-.3-.7-.3-1.1 0-2-.9-2-2 0-.6-.4-1-1-1H41.8c.1-.3.2-.7.2-1v-1zm-16 4c4.4 0 8 3.6 8 8s-3.6 8-8 8-8-3.6-8-8 3.6-8 8-8zm6 0h7c.5 0 1 .5 1 1v2c0 .6-.4 1-1 1h-3.8c-.7-1.6-1.8-3-3.2-4zm9.8 0h13.3c.4 1.4 1.5 2.5 2.9 2.8V49c-1.4.4-2.5 1.5-2.9 2.9H41.8c-.1-.1-.1-.3-.2-.4.4-.3.8-.7 1-1.1 2.2-.3 3.9-2.1 3.9-4.4 0-2.5-2-4.5-4.5-4.5V41c0-.4-.1-.7-.2-1zM26 42c-.6 0-1 .4-1 1v.2c-1.2.4-2 1.5-2 2.8 0 1.7 1.3 3 3 3 .6 0 1 .5 1 1s-.5 1-1 1c-.6 0-1-.5-1-1 0-.6-.4-1-1-1s-1 .4-1 1c0 1.3.8 2.4 2 2.8v.2c0 .6.4 1 1 1s1-.4 1-1v-.2c1.2-.4 2-1.5 2-2.8 0-1.7-1.3-3-3-3-.6 0-1-.4-1-1 0-.5.5-1 1-1 .6 0 1 .5 1 1 0 .6.4 1 1 1s1-.4 1-1c0-1.3-.8-2.4-2-2.8V43c0-.6-.4-1-1-1zm16 1.5h.1c1.4 0 2.5 1.1 2.5 2.5 0 1-.6 1.9-1.5 2.3V47c-.1-1.1-.7-2-1.5-2.5.2-.3.3-.6.4-1zm12 .5c-1.1 0-2 .9-2 2s.9 2 2 2 2-.9 2-2-.9-2-2-2zm-18.2 2H40c.6 0 1 .4 1 1v2c0 .6-.4 1-1 1h-4.2c.1-.6.2-1.3.2-2s-.1-1.4-.2-2zm-.6 6H39c.5 0 1 .5 1 1v2c0 .6-.4 1-1 1h-7c1.4-1 2.5-2.4 3.2-4z"></path>
</svg>
