<svg xmlns="http://www.w3.org/2000/svg" width="19" height="19" viewBox="0 0 19 19" fill="none">
<g id="basic / location">
<path id="coolicon" d="M9.50016 16.625C8.50024 15.7721 7.57339 14.837 6.72933 13.8296C5.46266 12.3168 3.9585 10.0637 3.9585 7.91668C3.95737 5.67432 5.30769 3.65228 7.37934 2.79412C9.45099 1.93595 11.8356 2.41082 13.4205 3.99713C14.4627 5.0347 15.0465 6.44607 15.0419 7.91668C15.0419 10.0637 13.5377 12.3168 12.271 13.8296C11.4269 14.837 10.5001 15.7721 9.50016 16.625ZM9.50016 5.54168C8.65166 5.54168 7.86761 5.99435 7.44335 6.72918C7.0191 7.464 7.0191 8.36935 7.44335 9.10418C7.86761 9.839 8.65166 10.2917 9.50016 10.2917C10.8118 10.2917 11.8752 9.22835 11.8752 7.91668C11.8752 6.605 10.8118 5.54168 9.50016 5.54168Z" fill="Black"/>
</g>
</svg>