<?xml version="1.0" standalone="no"?>
<!DOCTYPE svg PUBLIC "-//W3C//DTD SVG 20010904//EN"
 "http://www.w3.org/TR/2001/REC-SVG-20010904/DTD/svg10.dtd">
<svg version="1.0" xmlns="http://www.w3.org/2000/svg"
 width="460.000000pt" height="324.000000pt" viewBox="0 0 460.000000 324.000000"
 preserveAspectRatio="xMidYMid meet">

<g transform="translate(0.000000,324.000000) scale(0.100000,-0.100000)"
fill="#000000" stroke="none">
<path d="M2030 2774 c0 -251 -4 -454 -8 -452 -5 2 -161 83 -346 181 l-338 179
-53 -29 c-29 -15 -327 -179 -663 -363 l-611 -335 -1 -167 c0 -93 3 -168 8
-168 4 0 68 34 142 74 l135 74 3 -664 2 -664 1048 -2 1047 -3 3 -217 2 -218
40 0 40 0 0 220 0 220 1050 0 1050 0 0 40 0 40 -1047 2 -1048 3 -3 58 -3 57
851 0 850 0 0 45 0 45 -850 0 -850 0 0 500 c0 275 2 500 4 500 2 0 340 -178
751 -395 411 -217 751 -395 756 -395 10 0 45 67 38 73 -2 2 -346 185 -764 407
-418 221 -766 407 -772 413 -14 10 -19 137 -5 137 4 0 342 -178 752 -395 l745
-395 19 37 c16 32 17 38 3 48 -8 6 -355 190 -771 410 l-756 399 0 258 0 258
-40 0 -40 0 0 -230 c0 -177 -3 -230 -12 -230 -7 0 -69 31 -138 68 l-125 67 -3
483 -2 482 -45 0 -45 0 0 -456z m-217 -449 l207 -110 0 -66 0 -67 -117 61
c-65 33 -219 114 -343 178 l-225 118 -3 71 -3 71 138 -73 c76 -40 232 -122
346 -183z m-95 -190 l302 -158 0 -618 0 -619 -235 0 -235 0 0 255 0 255 -195
0 -195 0 -2 -257 -3 -258 -277 -3 -278 -2 0 603 0 603 367 202 368 201 40 -23
c22 -12 176 -94 343 -181z m533 -41 c68 -36 130 -71 137 -76 13 -11 18 -138 5
-138 -5 1 -69 34 -143 74 l-135 72 -3 67 c-2 37 1 67 6 67 4 0 64 -30 133 -66z
m147 -837 l-3 -522 -137 -3 -138 -3 0 600 0 599 140 -75 140 -75 -2 -521z
m-378 -677 l0 -60 -232 2 -233 3 -3 58 -3 57 236 0 235 0 0 -60z m378 3 l-3
-58 -140 0 -140 0 -3 58 -3 57 146 0 146 0 -3 -57z"/>
</g>
</svg>
